<svg width="512" height="512" viewBox="0 0 512 512" fill="none" xmlns="http://www.w3.org/2000/svg">
<path d="M33 234.5V234.5C44.9059 123.992 125.976 43.1424 236.514 31.5217C238.039 31.3614 239.373 31.1877 240.5 31" stroke="black"/>
<path d="M276 31V31C386.508 42.9059 467.358 123.976 478.978 234.514C479.139 236.039 479.312 237.373 479.5 238.5" stroke="black"/>
<path d="M479.5 279V279C467.594 389.508 386.524 470.358 275.986 481.978C274.461 482.139 273.126 482.312 272 482.5" stroke="black"/>
<path d="M236.5 482.5V482.5C125.992 470.594 45.1424 389.524 33.5217 278.986C33.3614 277.461 33.1877 276.126 33 275" stroke="black"/>
<path d="M255.756 481.155C251.736 480 248.806 478.584 246.967 476.907C245.144 475.215 244.232 473.131 244.232 470.657C244.232 467.858 245.347 465.547 247.577 463.724C249.823 461.884 252.737 460.965 256.317 460.965C258.759 460.965 260.932 461.437 262.836 462.381C264.757 463.325 266.238 464.627 267.279 466.287C268.337 467.947 268.866 469.762 268.866 471.731H264.154C264.154 469.583 263.471 467.898 262.104 466.678C260.736 465.441 258.808 464.822 256.317 464.822C254.006 464.822 252.2 465.335 250.897 466.36C249.612 467.369 248.969 468.777 248.969 470.584C248.969 472.033 249.579 473.261 250.8 474.271C252.037 475.263 254.128 476.175 257.074 477.005C260.036 477.835 262.348 478.755 264.008 479.764C265.684 480.757 266.921 481.92 267.719 483.255C268.533 484.59 268.939 486.16 268.939 487.967C268.939 490.848 267.816 493.159 265.57 494.9C263.324 496.626 260.321 497.488 256.562 497.488C254.12 497.488 251.841 497.024 249.726 496.097C247.61 495.153 245.974 493.867 244.818 492.239C243.679 490.612 243.109 488.764 243.109 486.697H247.821C247.821 488.846 248.611 490.547 250.189 491.8C251.785 493.037 253.909 493.655 256.562 493.655C259.035 493.655 260.932 493.151 262.25 492.142C263.568 491.132 264.228 489.757 264.228 488.016C264.228 486.274 263.617 484.931 262.396 483.987C261.176 483.027 258.962 482.083 255.756 481.155Z" fill="#FF0000"/>
<path d="M489.51 259.569H474.104V272.167H492V276H469.417V240.453H491.756V244.311H474.104V255.736H489.51V259.569Z" fill="#5F5E94"/>
<path d="M271.623 49H266.911L249.016 21.6074V49H244.304V13.4531H249.016L266.96 40.9678V13.4531H271.623V49Z" fill="#0047FF"/>
<path d="M22.0996 262.794L22.7832 267.481L23.7842 263.258L30.8154 238.453H34.7705L41.6309 263.258L42.6074 267.555L43.3643 262.77L48.8818 238.453H53.5938L44.9756 274H40.7031L33.3789 248.097L32.8174 245.387L32.2559 248.097L24.6631 274H20.3906L11.7969 238.453H16.4844L22.0996 262.794Z" fill="#5F5E94"/>
</svg>
