<svg width="512" height="512" viewBox="0 0 512 512" fill="none" xmlns="http://www.w3.org/2000/svg">
<g clip-path="url(#clip0_206_5)">
<path d="M255.756 481.155C251.736 480 248.806 478.584 246.967 476.907C245.144 475.215 244.232 473.131 244.232 470.657C244.232 467.858 245.347 465.547 247.577 463.724C249.823 461.884 252.737 460.965 256.317 460.965C258.759 460.965 260.932 461.437 262.836 462.381C264.757 463.325 266.238 464.627 267.279 466.287C268.337 467.947 268.866 469.762 268.866 471.731H264.154C264.154 469.583 263.471 467.898 262.104 466.678C260.736 465.441 258.808 464.822 256.317 464.822C254.006 464.822 252.2 465.335 250.897 466.36C249.612 467.369 248.969 468.777 248.969 470.584C248.969 472.033 249.579 473.261 250.8 474.271C252.037 475.263 254.128 476.175 257.074 477.005C260.036 477.835 262.348 478.755 264.008 479.764C265.684 480.757 266.921 481.92 267.719 483.255C268.533 484.59 268.939 486.16 268.939 487.967C268.939 490.848 267.816 493.159 265.57 494.9C263.324 496.626 260.321 497.488 256.562 497.488C254.12 497.488 251.841 497.024 249.726 496.097C247.61 495.153 245.974 493.867 244.818 492.239C243.679 490.612 243.109 488.764 243.109 486.697H247.821C247.821 488.846 248.611 490.547 250.189 491.8C251.785 493.037 253.909 493.655 256.562 493.655C259.035 493.655 260.932 493.151 262.25 492.142C263.568 491.132 264.228 489.757 264.228 488.016C264.228 486.274 263.617 484.931 262.396 483.987C261.176 483.027 258.962 482.083 255.756 481.155Z" fill="#FF0000"/>
<path d="M489.51 259.569H474.104V272.167H492V276H469.417V240.453H491.756V244.311H474.104V255.736H489.51V259.569Z" fill="#5F5E94"/>
<path d="M271.623 49H266.911L249.016 21.6074V49H244.304V13.4531H249.016L266.96 40.9678V13.4531H271.623V49Z" fill="#0047FF"/>
<path d="M22.0996 264.794L22.7832 269.481L23.7842 265.258L30.8154 240.453H34.7705L41.6309 265.258L42.6074 269.555L43.3643 264.77L48.8818 240.453H53.5938L44.9756 276H40.7031L33.3789 250.097L32.8174 247.387L32.2559 250.097L24.6631 276H20.3906L11.7969 240.453H16.4844L22.0996 264.794Z" fill="#5F5E94"/>
<g clip-path="url(#clip1_206_5)">
<line x1="473.48" y1="198.878" x2="456.093" y2="203.537" stroke="black" stroke-width="2" stroke-linecap="round"/>
</g>
<g clip-path="url(#clip2_206_5)">
<line x1="451.173" y1="144.683" x2="435.584" y2="153.683" stroke="black" stroke-width="2" stroke-linecap="round"/>
</g>
<g clip-path="url(#clip3_206_5)">
<line x1="415.599" y1="98.1081" x2="402.871" y2="110.836" stroke="black" stroke-width="2" stroke-linecap="round"/>
</g>
<g clip-path="url(#clip4_206_5)">
<line x1="369.183" y1="62.3273" x2="360.183" y2="77.9158" stroke="black" stroke-width="2" stroke-linecap="round"/>
</g>
<g clip-path="url(#clip5_206_5)">
<line x1="315.088" y1="39.7791" x2="310.429" y2="57.1657" stroke="black" stroke-width="2" stroke-linecap="round"/>
</g>
<g clip-path="url(#clip6_206_5)">
<line x1="479.146" y1="227.699" x2="461.299" y2="230.048" stroke="black" stroke-width="2" stroke-linecap="round"/>
</g>
<g clip-path="url(#clip7_206_5)">
<line x1="285.17" y1="33.8376" x2="282.911" y2="51.6953" stroke="black" stroke-width="2" stroke-linecap="round"/>
</g>
<g clip-path="url(#clip8_206_5)">
<line x1="464.105" y1="171.056" x2="447.475" y2="177.944" stroke="black" stroke-width="2" stroke-linecap="round"/>
</g>
<g clip-path="url(#clip9_206_5)">
<line x1="434.916" y1="120.235" x2="420.636" y2="131.192" stroke="black" stroke-width="2" stroke-linecap="round"/>
</g>
<g clip-path="url(#clip10_206_5)">
<line x1="393.569" y1="78.7007" x2="382.611" y2="92.9807" stroke="black" stroke-width="2" stroke-linecap="round"/>
</g>
<g clip-path="url(#clip11_206_5)">
<line x1="342.881" y1="49.283" x2="335.992" y2="65.9126" stroke="black" stroke-width="2" stroke-linecap="round"/>
</g>
<g clip-path="url(#clip12_206_5)">
<line x1="227.675" y1="33.8577" x2="230.026" y2="51.7035" stroke="black" stroke-width="2" stroke-linecap="round"/>
</g>
<g clip-path="url(#clip13_206_5)">
<line x1="33.8345" y1="227.855" x2="51.6924" y2="230.112" stroke="black" stroke-width="2" stroke-linecap="round"/>
</g>
<g clip-path="url(#clip14_206_5)">
<line x1="171.033" y1="48.9046" x2="177.922" y2="65.5339" stroke="black" stroke-width="2" stroke-linecap="round"/>
</g>
<g clip-path="url(#clip15_206_5)">
<line x1="120.215" y1="78.0988" x2="131.174" y2="92.3782" stroke="black" stroke-width="2" stroke-linecap="round"/>
</g>
<g clip-path="url(#clip16_206_5)">
<line x1="78.6855" y1="119.451" x2="92.9667" y2="130.407" stroke="black" stroke-width="2" stroke-linecap="round"/>
</g>
<g clip-path="url(#clip17_206_5)">
<line x1="49.2734" y1="170.142" x2="65.9038" y2="177.029" stroke="black" stroke-width="2" stroke-linecap="round"/>
</g>
<g clip-path="url(#clip18_206_5)">
<line x1="285.299" y1="479.146" x2="282.95" y2="461.3" stroke="black" stroke-width="2" stroke-linecap="round"/>
</g>
<g clip-path="url(#clip19_206_5)">
<line x1="479.162" y1="285.172" x2="461.304" y2="282.913" stroke="black" stroke-width="2" stroke-linecap="round"/>
</g>
<g clip-path="url(#clip20_206_5)">
<line x1="341.943" y1="464.105" x2="335.055" y2="447.475" stroke="black" stroke-width="2" stroke-linecap="round"/>
</g>
<g clip-path="url(#clip21_206_5)">
<line x1="392.764" y1="434.917" x2="381.806" y2="420.637" stroke="black" stroke-width="2" stroke-linecap="round"/>
</g>
<g clip-path="url(#clip22_206_5)">
<line x1="434.298" y1="393.57" x2="420.018" y2="382.612" stroke="black" stroke-width="2" stroke-linecap="round"/>
</g>
<g clip-path="url(#clip23_206_5)">
<line x1="463.716" y1="342.882" x2="447.087" y2="335.993" stroke="black" stroke-width="2" stroke-linecap="round"/>
</g>
<g clip-path="url(#clip24_206_5)">
<line x1="33.8573" y1="285.322" x2="51.7032" y2="282.972" stroke="black" stroke-width="2" stroke-linecap="round"/>
</g>
<g clip-path="url(#clip25_206_5)">
<line x1="227.852" y1="479.165" x2="230.109" y2="461.307" stroke="black" stroke-width="2" stroke-linecap="round"/>
</g>
<g clip-path="url(#clip26_206_5)">
<line x1="48.9035" y1="341.964" x2="65.5328" y2="335.075" stroke="black" stroke-width="2" stroke-linecap="round"/>
</g>
<g clip-path="url(#clip27_206_5)">
<line x1="78.0969" y1="392.782" x2="92.3766" y2="381.823" stroke="black" stroke-width="2" stroke-linecap="round"/>
</g>
<g clip-path="url(#clip28_206_5)">
<line x1="119.448" y1="434.313" x2="130.405" y2="420.031" stroke="black" stroke-width="2" stroke-linecap="round"/>
</g>
<g clip-path="url(#clip29_206_5)">
<line x1="170.14" y1="463.725" x2="177.027" y2="447.095" stroke="black" stroke-width="2" stroke-linecap="round"/>
</g>
<g clip-path="url(#clip30_206_5)">
<line x1="198.878" y1="39.5202" x2="203.537" y2="56.9069" stroke="black" stroke-width="2" stroke-linecap="round"/>
</g>
<g clip-path="url(#clip31_206_5)">
<line x1="144.683" y1="61.8273" x2="153.683" y2="77.4158" stroke="black" stroke-width="2" stroke-linecap="round"/>
</g>
<g clip-path="url(#clip32_206_5)">
<line x1="98.1081" y1="97.401" x2="110.836" y2="110.129" stroke="black" stroke-width="2" stroke-linecap="round"/>
</g>
<g clip-path="url(#clip33_206_5)">
<line x1="62.3273" y1="143.817" x2="77.9158" y2="152.817" stroke="black" stroke-width="2" stroke-linecap="round"/>
</g>
<g clip-path="url(#clip34_206_5)">
<line x1="39.7791" y1="197.912" x2="57.1658" y2="202.571" stroke="black" stroke-width="2" stroke-linecap="round"/>
</g>
<g clip-path="url(#clip35_206_5)">
<line x1="314.122" y1="473.48" x2="309.463" y2="456.093" stroke="black" stroke-width="2" stroke-linecap="round"/>
</g>
<g clip-path="url(#clip36_206_5)">
<line x1="368.317" y1="451.173" x2="359.317" y2="435.584" stroke="black" stroke-width="2" stroke-linecap="round"/>
</g>
<g clip-path="url(#clip37_206_5)">
<line x1="414.892" y1="415.599" x2="402.164" y2="402.871" stroke="black" stroke-width="2" stroke-linecap="round"/>
</g>
<g clip-path="url(#clip38_206_5)">
<line x1="450.673" y1="369.183" x2="435.084" y2="360.183" stroke="black" stroke-width="2" stroke-linecap="round"/>
</g>
<g clip-path="url(#clip39_206_5)">
<line x1="473.221" y1="315.088" x2="455.834" y2="310.429" stroke="black" stroke-width="2" stroke-linecap="round"/>
</g>
<g clip-path="url(#clip40_206_5)">
<line x1="39.5202" y1="314.122" x2="56.9069" y2="309.463" stroke="black" stroke-width="2" stroke-linecap="round"/>
</g>
<g clip-path="url(#clip41_206_5)">
<line x1="61.8273" y1="368.317" x2="77.4158" y2="359.317" stroke="black" stroke-width="2" stroke-linecap="round"/>
</g>
<g clip-path="url(#clip42_206_5)">
<line x1="97.401" y1="414.892" x2="110.129" y2="402.164" stroke="black" stroke-width="2" stroke-linecap="round"/>
</g>
<g clip-path="url(#clip43_206_5)">
<line x1="143.817" y1="450.673" x2="152.817" y2="435.084" stroke="black" stroke-width="2" stroke-linecap="round"/>
</g>
<g clip-path="url(#clip44_206_5)">
<line x1="197.912" y1="473.221" x2="202.571" y2="455.834" stroke="black" stroke-width="2" stroke-linecap="round"/>
</g>
</g>
<defs>
<clipPath id="clip0_206_5">
<rect width="512" height="512" fill="white"/>
</clipPath>
<clipPath id="clip1_206_5">
<rect width="447" height="451" fill="white" transform="translate(416.47 -17.7481) rotate(75)"/>
</clipPath>
<clipPath id="clip2_206_5">
<rect width="447" height="451" fill="white" transform="translate(340.039 -49.8067) rotate(60)"/>
</clipPath>
<clipPath id="clip3_206_5">
<rect width="447" height="451" fill="white" transform="translate(257.914 -60.9909) rotate(45)"/>
</clipPath>
<clipPath id="clip4_206_5">
<rect width="447" height="451" fill="white" transform="translate(175.693 -50.5387) rotate(30)"/>
</clipPath>
<clipPath id="clip5_206_5">
<rect width="447" height="451" fill="white" transform="translate(98.9793 -19.1623) rotate(15)"/>
</clipPath>
<clipPath id="clip6_206_5">
<rect width="447" height="451" fill="white" transform="translate(450.906 5.48431) rotate(82.5017)"/>
</clipPath>
<clipPath id="clip7_206_5">
<rect width="447" height="451" fill="white" transform="translate(63.0666 4.73419) rotate(7.20946)"/>
</clipPath>
<clipPath id="clip8_206_5">
<rect width="447" height="451" fill="white" transform="translate(379.314 -36.2785) rotate(67.5017)"/>
</clipPath>
<clipPath id="clip9_206_5">
<rect width="447" height="451" fill="white" transform="translate(299.353 -58.0889) rotate(52.5017)"/>
</clipPath>
<clipPath id="clip10_206_5">
<rect width="447" height="451" fill="white" transform="translate(216.471 -58.4606) rotate(37.5017)"/>
</clipPath>
<clipPath id="clip11_206_5">
<rect width="447" height="451" fill="white" transform="translate(136.317 -37.3683) rotate(22.5017)"/>
</clipPath>
<clipPath id="clip12_206_5">
<rect width="447" height="451" fill="white" transform="translate(5.46274 62.122) rotate(-7.50463)"/>
</clipPath>
<clipPath id="clip13_206_5">
<rect width="447" height="451" fill="white" transform="translate(4.75577 449.961) rotate(-82.7969)"/>
</clipPath>
<clipPath id="clip14_206_5">
<rect width="447" height="451" fill="white" transform="translate(-36.2921 133.719) rotate(-22.5046)"/>
</clipPath>
<clipPath id="clip15_206_5">
<rect width="447" height="451" fill="white" transform="translate(-58.0936 213.682) rotate(-37.5046)"/>
</clipPath>
<clipPath id="clip16_206_5">
<rect width="447" height="451" fill="white" transform="translate(-58.4561 296.564) rotate(-52.5046)"/>
</clipPath>
<clipPath id="clip17_206_5">
<rect width="447" height="451" fill="white" transform="translate(-37.3548 376.716) rotate(-67.5046)"/>
</clipPath>
<clipPath id="clip18_206_5">
<rect width="447" height="451" fill="white" transform="translate(507.514 450.908) rotate(172.502)"/>
</clipPath>
<clipPath id="clip19_206_5">
<rect width="447" height="451" fill="white" transform="translate(508.267 63.0683) rotate(97.2099)"/>
</clipPath>
<clipPath id="clip20_206_5">
<rect width="447" height="451" fill="white" transform="translate(549.278 379.316) rotate(157.502)"/>
</clipPath>
<clipPath id="clip21_206_5">
<rect width="447" height="451" fill="white" transform="translate(571.089 299.355) rotate(142.502)"/>
</clipPath>
<clipPath id="clip22_206_5">
<rect width="447" height="451" fill="white" transform="translate(571.461 216.473) rotate(127.502)"/>
</clipPath>
<clipPath id="clip23_206_5">
<rect width="447" height="451" fill="white" transform="translate(550.369 136.319) rotate(112.502)"/>
</clipPath>
<clipPath id="clip24_206_5">
<rect width="447" height="451" fill="white" transform="translate(62.1187 507.535) rotate(-97.5038)"/>
</clipPath>
<clipPath id="clip25_206_5">
<rect width="447" height="451" fill="white" transform="translate(449.958 508.247) rotate(-172.796)"/>
</clipPath>
<clipPath id="clip26_206_5">
<rect width="447" height="451" fill="white" transform="translate(133.715 549.29) rotate(-112.504)"/>
</clipPath>
<clipPath id="clip27_206_5">
<rect width="447" height="451" fill="white" transform="translate(213.678 571.093) rotate(-127.504)"/>
</clipPath>
<clipPath id="clip28_206_5">
<rect width="447" height="451" fill="white" transform="translate(296.56 571.457) rotate(-142.504)"/>
</clipPath>
<clipPath id="clip29_206_5">
<rect width="447" height="451" fill="white" transform="translate(376.712 550.356) rotate(-157.504)"/>
</clipPath>
<clipPath id="clip30_206_5">
<rect width="447" height="451" fill="white" transform="translate(-17.7481 96.5298) rotate(-15)"/>
</clipPath>
<clipPath id="clip31_206_5">
<rect width="447" height="451" fill="white" transform="translate(-49.8067 172.961) rotate(-30)"/>
</clipPath>
<clipPath id="clip32_206_5">
<rect width="447" height="451" fill="white" transform="translate(-60.9909 255.086) rotate(-45)"/>
</clipPath>
<clipPath id="clip33_206_5">
<rect width="447" height="451" fill="white" transform="translate(-50.5387 337.307) rotate(-60)"/>
</clipPath>
<clipPath id="clip34_206_5">
<rect width="447" height="451" fill="white" transform="translate(-19.1623 414.021) rotate(-75)"/>
</clipPath>
<clipPath id="clip35_206_5">
<rect width="447" height="451" fill="white" transform="translate(530.748 416.47) rotate(165)"/>
</clipPath>
<clipPath id="clip36_206_5">
<rect width="447" height="451" fill="white" transform="translate(562.807 340.039) rotate(150)"/>
</clipPath>
<clipPath id="clip37_206_5">
<rect width="447" height="451" fill="white" transform="translate(573.991 257.914) rotate(135)"/>
</clipPath>
<clipPath id="clip38_206_5">
<rect width="447" height="451" fill="white" transform="translate(563.539 175.693) rotate(120)"/>
</clipPath>
<clipPath id="clip39_206_5">
<rect width="447" height="451" fill="white" transform="translate(532.162 98.9793) rotate(105)"/>
</clipPath>
<clipPath id="clip40_206_5">
<rect width="447" height="451" fill="white" transform="translate(96.5298 530.748) rotate(-105)"/>
</clipPath>
<clipPath id="clip41_206_5">
<rect width="447" height="451" fill="white" transform="translate(172.961 562.807) rotate(-120)"/>
</clipPath>
<clipPath id="clip42_206_5">
<rect width="447" height="451" fill="white" transform="translate(255.086 573.991) rotate(-135)"/>
</clipPath>
<clipPath id="clip43_206_5">
<rect width="447" height="451" fill="white" transform="translate(337.307 563.539) rotate(-150)"/>
</clipPath>
<clipPath id="clip44_206_5">
<rect width="447" height="451" fill="white" transform="translate(414.021 532.162) rotate(-165)"/>
</clipPath>
</defs>
</svg>
