<svg width="483" height="485" viewBox="0 0 483 485" fill="none" xmlns="http://www.w3.org/2000/svg">
<path d="M245.756 468.155C241.736 467 238.806 465.584 236.967 463.907C235.144 462.215 234.232 460.131 234.232 457.657C234.232 454.858 235.347 452.547 237.577 450.724C239.823 448.884 242.737 447.965 246.317 447.965C248.759 447.965 250.932 448.437 252.836 449.381C254.757 450.325 256.238 451.627 257.279 453.287C258.337 454.947 258.866 456.762 258.866 458.731H254.154C254.154 456.583 253.471 454.898 252.104 453.678C250.736 452.441 248.808 451.822 246.317 451.822C244.006 451.822 242.2 452.335 240.897 453.36C239.612 454.369 238.969 455.777 238.969 457.584C238.969 459.033 239.579 460.261 240.8 461.271C242.037 462.263 244.128 463.175 247.074 464.005C250.036 464.835 252.348 465.755 254.008 466.764C255.684 467.757 256.921 468.92 257.719 470.255C258.533 471.59 258.939 473.16 258.939 474.967C258.939 477.848 257.816 480.159 255.57 481.9C253.324 483.626 250.321 484.488 246.562 484.488C244.12 484.488 241.841 484.024 239.726 483.097C237.61 482.153 235.974 480.867 234.818 479.239C233.679 477.612 233.109 475.764 233.109 473.697H237.821C237.821 475.846 238.611 477.547 240.189 478.8C241.785 480.037 243.909 480.655 246.562 480.655C249.035 480.655 250.932 480.151 252.25 479.142C253.568 478.132 254.228 476.757 254.228 475.016C254.228 473.274 253.617 471.931 252.396 470.987C251.176 470.027 248.962 469.083 245.756 468.155Z" fill="#FF0000"/>
<path d="M482 259.167V263H463.177V259.167H482ZM464.129 227.453V263H459.417V227.453H464.129ZM479.51 242.736V246.569H463.177V242.736H479.51ZM481.756 227.453V231.311H463.177V227.453H481.756Z" fill="#7E7E7E"/>
<path d="M261.623 36H256.911L239.016 8.60742V36H234.304V0.453125H239.016L256.96 27.9678V0.453125H261.623V36Z" fill="#0047FF"/>
<path d="M13.7842 252.258L20.8398 227.453H24.2578L22.2803 237.097L14.6875 263H11.2939L13.7842 252.258ZM6.48438 227.453L12.0996 251.77L13.7842 263H10.415L1.79688 227.453H6.48438ZM33.3887 251.745L38.8818 227.453H43.5938L35 263H31.6309L33.3887 251.745ZM24.7705 227.453L31.6309 252.258L34.1211 263H30.7275L23.4033 237.097L21.4014 227.453H24.7705Z" fill="#7E7E7E"/>
</svg>
