<svg width="512" height="512" viewBox="0 0 512 512" fill="none" xmlns="http://www.w3.org/2000/svg">
<path d="M254.824 496.592C251.93 495.76 249.82 494.74 248.496 493.533C247.184 492.314 246.527 490.814 246.527 489.033C246.527 487.018 247.33 485.354 248.936 484.041C250.553 482.717 252.65 482.055 255.229 482.055C256.986 482.055 258.551 482.395 259.922 483.074C261.305 483.754 262.371 484.691 263.121 485.887C263.883 487.082 264.264 488.389 264.264 489.807H260.871C260.871 488.26 260.379 487.047 259.395 486.168C258.41 485.277 257.021 484.832 255.229 484.832C253.564 484.832 252.264 485.201 251.326 485.939C250.4 486.666 249.938 487.68 249.938 488.98C249.938 490.023 250.377 490.908 251.256 491.635C252.146 492.35 253.652 493.006 255.773 493.604C257.906 494.201 259.57 494.863 260.766 495.59C261.973 496.305 262.863 497.143 263.438 498.104C264.023 499.064 264.316 500.195 264.316 501.496C264.316 503.57 263.508 505.234 261.891 506.488C260.273 507.73 258.111 508.352 255.404 508.352C253.646 508.352 252.006 508.018 250.482 507.35C248.959 506.67 247.781 505.744 246.949 504.572C246.129 503.4 245.719 502.07 245.719 500.582H249.111C249.111 502.129 249.68 503.354 250.816 504.256C251.965 505.146 253.494 505.592 255.404 505.592C257.186 505.592 258.551 505.229 259.5 504.502C260.449 503.775 260.924 502.785 260.924 501.531C260.924 500.277 260.484 499.311 259.605 498.631C258.727 497.939 257.133 497.26 254.824 496.592Z" fill="#FF0000"/>
<path d="M8.51172 259.932L9.00391 263.307L9.72461 260.266L14.7871 242.406H17.6348L22.5742 260.266L23.2773 263.359L23.8223 259.914L27.7949 242.406H31.1875L24.9824 268H21.9062L16.6328 249.35L16.2285 247.398L15.8242 249.35L10.3574 268H7.28125L1.09375 242.406H4.46875L8.51172 259.932Z" fill="#8A8A8A"/>
<path d="M497.707 256.17H486.615V265.24H499.5V268H483.24V242.406H499.324V245.184H486.615V253.41H497.707V256.17Z" fill="#8A8A8A"/>
<path d="M265.809 28H262.416L249.531 8.27734V28H246.139V2.40625H249.531L262.451 22.2168V2.40625H265.809V28Z" fill="#0047FF"/>
<circle cx="256" cy="256" r="222" stroke="#939393" stroke-width="4"/>
</svg>
